<svg style="position:absolute"><symbol viewBox="0 0 156 300" id="facebook" xmlns="http://www.w3.org/2000/svg"><defs/><path d="M101 300V163h46l7-53h-53V76c0-15.448 4.857-26 27-26h28V2c-4.887-.649-21.497-2-41-2-40.718 0-69 25.336-69 71v39H0v53h46v137h55z"/></symbol><symbol viewBox="0 0 315 300" id="line" xmlns="http://www.w3.org/2000/svg"><defs/><path d="M280.344 206.351h.01c-32.935 38.024-106.59 84.335-123.348 91.413-16.755 7.08-14.282-4.506-13.597-8.478.4-2.377 2.239-13.491 2.239-13.491.531-4.022 1.077-10.252-.509-14.222-1.765-4.376-8.721-6.671-13.832-7.769C55.86 243.805.004 190.897.004 127.748.004 57.307 70.443-.006 157.006-.006c86.573 0 156.998 57.313 156.998 127.754 0 28.198-10.896 53.594-33.66 78.603z"/><path d="M253.185 121.872c4.537 0 8.223 3.697 8.223 8.257 0 4.545-3.686 8.252-8.223 8.252h-22.936v14.765h22.936c4.525 0 8.223 3.705 8.223 8.252 0 4.562-3.698 8.262-8.223 8.262h-31.167c-4.527 0-8.223-3.7-8.223-8.262v-31.249-.02-.02-31.231-.037c0-4.545 3.691-8.258 8.223-8.258h31.167c4.537 0 8.223 3.713 8.223 8.258 0 4.557-3.686 8.262-8.223 8.262h-22.936v14.769h22.936zm-50.426 39.526a8.233 8.233 0 0 1-8.233 8.262 8.221 8.221 0 0 1-6.57-3.306l-31.944-43.649v38.693c0 4.562-3.683 8.262-8.221 8.262-4.535 0-8.226-3.7-8.226-8.262V98.841a8.256 8.256 0 0 1 5.627-7.831 8.28 8.28 0 0 1 2.607-.427 8.219 8.219 0 0 1 6.567 3.311l31.944 43.665V98.841c0-4.545 3.69-8.258 8.226-8.258 4.537 0 8.223 3.713 8.223 8.258v62.557zm-75.022 0c0 4.562-3.686 8.262-8.218 8.262-4.533 0-8.219-3.7-8.219-8.262V98.841c0-4.545 3.686-8.258 8.219-8.258 4.532 0 8.218 3.713 8.218 8.258v62.557zm-32.23 8.262H64.343c-4.527 0-8.216-3.7-8.216-8.262V98.841c0-4.545 3.689-8.258 8.216-8.258 4.538 0 8.221 3.713 8.221 8.258v54.305h22.943c4.54 0 8.221 3.705 8.221 8.252 0 4.562-3.681 8.262-8.221 8.262z"/></symbol><symbol viewBox="0 0 350 300" id="twitter" xmlns="http://www.w3.org/2000/svg"><defs/><path d="M350.001 35.509c-3.975 6.658-9.352 13.688-16.131 21.086-5.377 5.918-11.926 11.961-19.639 18.125V79.53c0 1.232.115 2.096.348 2.589v2.589c0 25.401-4.557 50.864-13.676 76.389-9.118 25.523-22.094 48.397-38.928 68.618-18.004 21.702-39.862 38.841-65.581 51.419-25.72 12.577-54.477 18.865-86.272 18.865-20.576 0-39.98-2.958-58.218-8.877-18.703-5.92-36.005-14.304-51.905-25.155.937.247 2.338.371 4.209.371 3.74.493 6.547.739 8.418.739h4.557c16.367 0 32.384-2.835 48.048-8.508 14.496-5.425 28.172-13.316 41.032-23.674-14.963-.246-28.876-5.426-41.732-15.538-12.627-9.863-21.045-22.317-25.252-37.36 3.507.74 5.728 1.108 6.664 1.108h3.504c.704.247 1.755.371 3.158.371 2.103 0 3.741-.124 4.911-.371 2.337 0 5.612-.493 9.819-1.479.466 0 1.17-.124 2.104-.37.937-.247 1.636-.369 2.103-.369-16.601-3.453-30.277-12.208-41.033-26.265-10.989-14.057-16.48-30.086-16.48-48.088v-.371-.369-.37c4.442 2.959 9.586 5.179 15.431 6.658 6.078 1.972 11.805 2.96 17.184 2.96-10.29-7.398-18.004-16.4-23.147-27.004-5.846-10.851-8.768-22.936-8.768-36.252 0-7.398.817-14.057 2.454-19.976.937-4.193 3.274-10.234 7.015-18.125 18.237 23.673 39.979 42.169 65.231 55.487 25.953 14.303 53.54 22.194 82.766 23.675-.701-5.18-1.05-8.015-1.05-8.508-.471-3.453-.704-6.288-.704-8.509 0-20.962 7.015-38.841 21.042-53.637C205.512 7.396 222.462-.002 242.337-.002c10.286 0 19.988 2.096 29.107 6.288 9.118 4.685 16.95 10.605 23.498 17.756 7.481-1.727 15.43-4.192 23.846-7.398 7.015-2.713 14.263-6.412 21.744-11.097-2.803 8.877-6.898 16.892-12.272 24.044-6.081 7.398-12.509 13.316-19.291 17.756a319.095 319.095 0 0 0 21.041-4.44c5.378-1.479 12.042-3.946 19.991-7.398z"/></symbol></svg>